<?xml version="1.0" standalone="no"?><!DOCTYPE svg PUBLIC "-//W3C//DTD SVG 1.1//EN" "http://www.w3.org/Graphics/SVG/1.1/DTD/svg11.dtd"><svg class="icon" width="200px" height="200.00px" viewBox="0 0 1024 1024" version="1.1" xmlns="http://www.w3.org/2000/svg"><path d="M85.333333 981.333333c-10.666667 0-21.333333-4.266667-29.866666-12.8-10.666667-8.533333-14.933333-23.466667-12.8-36.266666l51.2-288c2.133333-8.533333 6.4-17.066667 12.8-23.466667L663.466667 61.866667c25.6-25.6 68.266667-25.6 93.866666 0l202.666667 202.666666c12.8 12.8 19.2 29.866667 19.2 46.933334 0 17.066667-6.4 34.133333-19.2 46.933333L420.266667 900.266667l-17.066667 17.066666c-6.4 6.4-14.933333 10.666667-23.466667 12.8L91.733333 981.333333H85.333333z m288-93.866666zM174.933333 672l-36.266666 213.333333 215.466666-38.4 6.4-6.4 529.066667-529.066666-177.066667-177.066667L174.933333 672z"  /><path d="M770.133333 533.333333c-10.666667 0-21.333333-4.266667-29.866666-12.8L503.466667 283.733333c-17.066667-17.066667-17.066667-42.666667 0-59.733333 17.066667-17.066667 42.666667-17.066667 59.733333 0l236.8 236.8c17.066667 17.066667 17.066667 42.666667 0 59.733333-6.4 8.533333-17.066667 12.8-29.866667 12.8z"  /></svg>