<?xml version="1.0" standalone="no"?><!DOCTYPE svg PUBLIC "-//W3C//DTD SVG 1.1//EN" "http://www.w3.org/Graphics/SVG/1.1/DTD/svg11.dtd"><svg class="icon" width="200px" height="200.00px" viewBox="0 0 1024 1024" version="1.1" xmlns="http://www.w3.org/2000/svg"><path d="M917.333333 981.333333c-10.666667 0-21.333333-4.266667-29.866666-12.8l-228.266667-234.666666c-17.066667-17.066667-17.066667-44.8 0-59.733334 17.066667-17.066667 44.8-17.066667 59.733333 0l228.266667 234.666667c17.066667 17.066667 17.066667 44.8 0 59.733333-8.533333 8.533333-19.2 12.8-29.866667 12.8z"  /><path d="M454.4 814.933333C238.933333 814.933333 64 642.133333 64 428.8S238.933333 42.666667 454.4 42.666667c215.466667 0 390.4 172.8 390.4 386.133333s-174.933333 386.133333-390.4 386.133333z m0-686.933333C285.866667 128 149.333333 262.4 149.333333 428.8s136.533333 300.8 305.066667 300.8 305.066667-134.4 305.066667-300.8S622.933333 128 454.4 128z"  /></svg>